<svg width="59" height="47" viewBox="0 0 59 47" fill="none" xmlns="http://www.w3.org/2000/svg">
<path d="M58.22 35.6C58.22 38.9733 57.12 41.6867 54.92 43.74C52.72 45.6467 49.9333 46.6 46.56 46.6C42.6 46.6 39.3 45.28 36.66 42.64C34.1667 40 32.92 36.1133 32.92 30.98C32.92 26.14 33.58 22.0333 34.9 18.66C36.3667 15.14 38.0533 12.2067 39.96 9.85999C42.0133 7.36666 44.0667 5.38666 46.12 3.91999C48.32 2.45332 50.2267 1.42666 51.84 0.839988L57.34 8.53999C54.1133 10.1533 51.4733 12.3533 49.42 15.14C47.5133 17.78 46.56 21.1533 46.56 25.26C47.1467 25.1133 47.9533 25.04 48.98 25.04C51.9133 25.04 54.1867 26.0667 55.8 28.12C57.4133 30.1733 58.22 32.6667 58.22 35.6ZM26.1 35.6C26.1 38.9733 25 41.6867 22.8 43.74C20.6 45.6467 17.8133 46.6 14.44 46.6C10.48 46.6 7.18 45.28 4.54 42.64C2.04667 40 0.800001 36.1133 0.800001 30.98C0.800001 26.14 1.46 22.0333 2.78 18.66C4.24667 15.14 5.93333 12.2067 7.84 9.85999C9.89333 7.36666 11.9467 5.38666 14 3.91999C16.2 2.45332 18.1067 1.42666 19.72 0.839988L25.22 8.53999C21.9933 10.1533 19.3533 12.3533 17.3 15.14C15.3933 17.78 14.44 21.1533 14.44 25.26C15.0267 25.1133 15.8333 25.04 16.86 25.04C19.7933 25.04 22.0667 26.0667 23.68 28.12C25.2933 30.1733 26.1 32.6667 26.1 35.6Z" fill="#203253"/>
</svg>
