<svg width="28" height="28" viewBox="0 0 28 28" fill="none" xmlns="http://www.w3.org/2000/svg">
<path d="M13.9928 13.8834C14.6004 13.8834 15.123 13.667 15.5605 13.2343C15.998 12.8017 16.2167 12.2815 16.2167 11.6739C16.2167 11.0663 16.0004 10.5438 15.5677 10.1063C15.135 9.66877 14.6149 9.45002 14.0073 9.45002C13.3997 9.45002 12.8771 9.66636 12.4396 10.099C12.0021 10.5317 11.7834 11.0519 11.7834 11.6595C11.7834 12.2671 11.9997 12.7896 12.4324 13.2271C12.8651 13.6646 13.3852 13.8834 13.9928 13.8834ZM14.0001 22.6917C16.4181 20.4685 18.2039 18.4522 19.3574 16.6428C20.5108 14.8333 21.0876 13.2493 21.0876 11.8906C21.0876 9.74827 20.4041 7.99412 19.0371 6.62815C17.67 5.26218 15.9932 4.57919 14.0067 4.57919C12.0201 4.57919 10.3411 5.26278 8.96966 6.62996C7.59826 7.99712 6.91257 9.7528 6.91257 11.897C6.91257 13.2601 7.50412 14.8415 8.68724 16.6412C9.87036 18.4409 11.6413 20.4578 14.0001 22.6917ZM14.0074 25.6959C13.7886 25.6959 13.5771 25.6618 13.373 25.5938C13.1688 25.5257 12.989 25.4236 12.8334 25.2875C9.91673 22.683 7.74382 20.278 6.31465 18.0726C4.88548 15.8672 4.1709 13.8097 4.1709 11.9C4.1709 8.8322 5.15867 6.38816 7.1342 4.5679C9.10974 2.74765 11.3975 1.83752 13.9974 1.83752C16.5973 1.83752 18.8859 2.74765 20.8632 4.5679C22.8406 6.38816 23.8292 8.8322 23.8292 11.9C23.8292 13.8056 23.1146 15.8621 21.6855 18.0695C20.2563 20.277 18.0834 22.683 15.1667 25.2875C15.0112 25.4236 14.8337 25.5257 14.6344 25.5938C14.4351 25.6618 14.2261 25.6959 14.0074 25.6959Z" fill="white"/>
</svg>
