<svg width="26" height="26" viewBox="0 0 26 26" fill="none" xmlns="http://www.w3.org/2000/svg">
<path d="M3.79175 21.6667C3.35841 21.6667 2.97925 21.5042 2.65425 21.1792C2.32925 20.8542 2.16675 20.475 2.16675 20.0417V5.95837C2.16675 5.52504 2.32925 5.14587 2.65425 4.82087C2.97925 4.49587 3.35841 4.33337 3.79175 4.33337H22.2084C22.6417 4.33337 23.0209 4.49587 23.3459 4.82087C23.6709 5.14587 23.8334 5.52504 23.8334 5.95837V20.0417C23.8334 20.475 23.6709 20.8542 23.3459 21.1792C23.0209 21.5042 22.6417 21.6667 22.2084 21.6667H3.79175ZM13.0001 13.4875L22.2084 7.44796V5.95837L13.0001 11.8625L3.79175 5.95837V7.44796L13.0001 13.4875Z" fill="#203253"/>
</svg>
