<svg width="32" height="32" viewBox="0 0 32 32" fill="none" xmlns="http://www.w3.org/2000/svg">
<path d="M15.9999 15.9667C14.5333 15.9667 13.3333 15.5 12.3999 14.5667C11.4666 13.6333 10.9999 12.4333 10.9999 10.9667C10.9999 9.50001 11.4666 8.30001 12.3999 7.36667C13.3333 6.43334 14.5333 5.96667 15.9999 5.96667C17.4666 5.96667 18.6666 6.43334 19.5999 7.36667C20.5333 8.30001 20.9999 9.50001 20.9999 10.9667C20.9999 12.4333 20.5333 13.6333 19.5999 14.5667C18.6666 15.5 17.4666 15.9667 15.9999 15.9667ZM5.33325 26.6667V23.5333C5.33325 22.6889 5.54436 21.9667 5.96659 21.3667C6.38881 20.7667 6.93325 20.3111 7.59992 20C9.08881 19.3333 10.5166 18.8333 11.8833 18.5C13.2499 18.1667 14.6221 18 15.9999 18C17.3777 18 18.7444 18.1722 20.0999 18.5167C21.4555 18.8611 22.8777 19.3556 24.3666 20C25.0555 20.3111 25.611 20.7667 26.0333 21.3667C26.4555 21.9667 26.6666 22.6889 26.6666 23.5333V26.6667H5.33325Z" fill="#203253"/>
</svg>
