<svg width="39" height="39" viewBox="0 0 39 39" fill="none" xmlns="http://www.w3.org/2000/svg">
<path d="M6.60739 33.6174C6.265 33.6174 5.98187 33.5055 5.75801 33.2816C5.53414 33.0577 5.4222 32.7746 5.4222 32.4322C5.4222 32.0898 5.53414 31.8067 5.75801 31.5828C5.98187 31.359 6.265 31.247 6.60739 31.247H32.6815C33.0239 31.247 33.307 31.359 33.5308 31.5828C33.7547 31.8067 33.8667 32.0898 33.8667 32.4322C33.8667 32.7746 33.7547 33.0577 33.5308 33.2816C33.307 33.5055 33.0239 33.6174 32.6815 33.6174H6.60739ZM8.78023 25.1631C8.51685 25.2421 8.26006 25.2289 8.00986 25.1236C7.75965 25.0182 7.56871 24.847 7.43702 24.61L4.47406 19.5532C4.28969 19.2635 4.25677 18.987 4.37529 18.7236C4.49381 18.4602 4.72426 18.3022 5.06665 18.2495C5.19834 18.2232 5.34319 18.2363 5.50122 18.289C5.65924 18.3417 5.79093 18.4075 5.89628 18.4866L8.30616 20.6199L17.2346 18.21L11.3086 8.29396C11.0716 7.8989 11.0255 7.517 11.1704 7.14828C11.3152 6.77955 11.6115 6.52935 12.0592 6.39766C12.2699 6.34499 12.4938 6.34499 12.7308 6.39766C12.9679 6.45034 13.1654 6.54252 13.3234 6.6742L24.0296 16.3532L32.5629 14.0619C33.2741 13.8512 33.9193 13.9763 34.4988 14.4372C35.0782 14.8981 35.3679 15.5104 35.3679 16.2742C35.3679 16.7746 35.2164 17.2224 34.9136 17.6174C34.6107 18.0125 34.2222 18.2759 33.7481 18.4075L8.78023 25.1631Z" fill="white"/>
</svg>
